<?xml version="1.0" encoding="UTF-8"?>
<svg width="11px" height="11px" viewBox="0 0 11 11" version="1.1" xmlns="http://www.w3.org/2000/svg" xmlns:xlink="http://www.w3.org/1999/xlink">
    <!-- Generator: Sketch 50.2 (55047) - http://www.bohemiancoding.com/sketch -->
    <title>apps</title>
    <desc>Created with Sketch.</desc>
    <defs></defs>
    <g id="Page-1" stroke="none" stroke-width="1" fill="none" fill-rule="evenodd" opacity="0.0946428571">
        <g id="Artboard" transform="translate(-1161.000000, -327.000000)" fill="#4C6085">
            <g id="apps" transform="translate(1161.000000, 327.000000)">
                <path d="M4.125,11 L6.875,11 L6.875,8.25 L4.125,8.25 L4.125,11 L4.125,11 Z M0,11 L2.75,11 L2.75,8.25 L0,8.25 L0,11 L0,11 Z M4.125,6.875 L6.875,6.875 L6.875,4.125 L4.125,4.125 L4.125,6.875 L4.125,6.875 Z M8.25,0 L8.25,2.75 L11,2.75 L11,0 L8.25,0 L8.25,0 Z M8.25,6.875 L11,6.875 L11,4.125 L8.25,4.125 L8.25,6.875 L8.25,6.875 Z M8.25,11 L11,11 L11,8.25 L8.25,8.25 L8.25,11 L8.25,11 Z" id="Shape"></path>
            </g>
        </g>
    </g>
</svg>