
<svg width="105px" height="16px" viewBox="0 0 105 16" version="1.1" xmlns="http://www.w3.org/2000/svg" xmlns:xlink="http://www.w3.org/1999/xlink">
  <!-- Generator: Sketch 49 (51002) - http://www.bohemiancoding.com/sketch -->
  <desc>Created with Sketch.</desc>
  <defs></defs>
  <g id="Page-1" stroke="none" stroke-width="1" fill="none" fill-rule="evenodd">
    <g id="Artboard" transform="translate(-25.000000, -24.000000)" fill="#13c4a3">
      <path d="M33.08,39.3 C30.9999896,39.3 29.2533404,38.6166735 27.84,37.25 C26.4266596,35.8833265 25.72,34.1133442 25.72,31.94 C25.72,29.7799892 26.4333262,28.0033403 27.86,26.61 C29.2866738,25.2166597 31.0133232,24.52 33.04,24.52 C34.0533384,24.52 34.9699959,24.6699985 35.79,24.97 C36.6100041,25.2700015 37.2733308,25.6666642 37.78,26.16 C38.2866692,26.6533358 38.6933318,27.1599974 39,27.68 C39.3066682,28.2000026 39.5199994,28.7399972 39.64,29.3 L36.66,30.24 C36.593333,29.9599986 36.4866674,29.6833347 36.34,29.41 C36.1933326,29.1366653 35.986668,28.8566681 35.72,28.57 C35.453332,28.2833319 35.086669,28.0500009 34.62,27.87 C34.153331,27.6899991 33.6266696,27.6 33.04,27.6 C31.973328,27.6 31.0333374,27.9766629 30.22,28.73 C29.4066626,29.4833371 29,30.5533264 29,31.94 C29,33.2200064 29.399996,34.2399962 30.2,35 C31.000004,35.7600038 31.9599944,36.14 33.08,36.14 C34.1733388,36.14 35.019997,35.8666694 35.62,35.32 C36.220003,34.7733306 36.6133324,34.1600034 36.8,33.48 L39.82,34.34 C39.686666,34.8866694 39.4700015,35.426664 39.17,35.96 C38.8699985,36.493336 38.4633359,37.0199974 37.95,37.54 C37.4366641,38.0600026 36.7566709,38.4833317 35.91,38.81 C35.0633291,39.1366683 34.1200052,39.3 33.08,39.3 Z M43.49,28.72 C42.6766626,29.453337 42.27,30.5133264 42.27,31.9 C42.27,33.2866736 42.6799959,34.346663 43.5,35.08 C44.3200041,35.813337 45.2766612,36.18 46.37,36.18 C47.4633388,36.18 48.4166626,35.813337 49.23,35.08 C50.0433374,34.346663 50.45,33.2866736 50.45,31.9 C50.45,30.5133264 50.0433374,29.4500037 49.23,28.71 C48.4166626,27.9699963 47.4633388,27.6 46.37,27.6 C45.2766612,27.6 44.3166708,27.9733296 43.49,28.72 Z M38.99,31.92 C38.99,29.719989 39.7066595,27.9366735 41.14,26.57 C42.5733405,25.2033265 44.3166564,24.52 46.37,24.52 C48.4233436,24.52 50.1633262,25.2066598 51.59,26.58 C53.0166738,27.9533402 53.73,29.7333224 53.73,31.92 C53.73,34.1066776 53.0166738,35.8833265 51.59,37.25 C50.1633262,38.6166735 48.4233436,39.3 46.37,39.3 C44.3166564,39.3 42.5733405,38.6166735 41.14,37.25 C39.7066595,35.8833265 38.99,34.1066776 38.99,31.92 Z M66.2600001,39 L62.9200001,39 L57.0800001,29.68 L57.0800001,39 L53.9400001,39 L53.9400001,24.82 L57.7800001,24.82 L63.1000001,33.44 L63.1000001,24.82 L66.2600001,24.82 L66.2600001,39 Z M72.8300001,34.8 L76.2100001,24.82 L79.5700001,24.82 L74.3900001,39 L71.1300001,39 L65.9300001,24.82 L69.4100001,24.82 L72.8300001,34.8 Z M86.0800002,39 L83.5400002,33.72 L82.4200002,33.72 L82.4200002,39 L79.2600002,39 L79.2600002,24.82 L84.8800002,24.82 C86.2533404,24.82 87.3633293,25.2399958 88.2100002,26.08 C89.0566711,26.9200042 89.4800002,27.9799936 89.4800002,29.26 C89.4800002,30.2200048 89.233336,31.0499965 88.7400002,31.75 C88.2466644,32.4500035 87.5600046,32.9533318 86.6800002,33.26 L89.5600002,39 L86.0800002,39 Z M82.4200002,31 L84.2800002,31 C84.9200034,31 85.4133318,30.8433349 85.7600002,30.53 C86.1066686,30.2166651 86.2800002,29.8000026 86.2800002,29.28 C86.2800002,28.746664 86.1066686,28.3266682 85.7600002,28.02 C85.4133318,27.7133318 84.9200034,27.56 84.2800002,27.56 L82.4200002,27.56 L82.4200002,31 Z M100.51,27.84 L96.1300002,27.84 L96.1300002,39 L92.9700002,39 L92.9700002,27.84 L88.6100002,27.84 L88.6100002,24.82 L100.51,24.82 L100.51,27.84 Z M119.31,39 L116.21,39 L116.21,29.6 L112.51,39 L109.95,39 L106.25,29.72 L106.25,39 L103.25,39 L103.25,24.82 L107.37,24.82 L111.27,34.4 L114.97,24.82 L119.31,24.82 L119.31,39 Z M129.34,39 L120.34,39 L120.34,24.82 L129.32,24.82 L129.32,27.8 L123.5,27.8 L123.5,30.5 L128.78,30.5 L128.78,33.28 L123.5,33.28 L123.5,36 L129.34,36 L129.34,39 Z" id="CONVRT-ME"></path>
    </g>
  </g>
</svg>
