<?xml version="1.0" encoding="UTF-8"?>
<svg width="87px" height="26px" viewBox="0 0 87 26" version="1.1" xmlns="http://www.w3.org/2000/svg" xmlns:xlink="http://www.w3.org/1999/xlink">
    <title>moup</title>
    <g id="Page-1" stroke="none" stroke-width="1" fill="none" fill-rule="evenodd">
        <g id="Artboard" transform="translate(-30.000000, -26.000000)" fill="#39A0ED">
            <path d="M35.884,45 L30.412,45 L30.412,27.108 L35.632,27.108 L35.632,29.16 C36.0640022,28.3919962 36.777995,27.7680024 37.774,27.288 C38.770005,26.8079976 39.771995,26.568 40.78,26.568 C43.3480128,26.568 45.1119952,27.5039906 46.072,29.376 C47.3680065,27.5039906 49.215988,26.568 51.616,26.568 C53.4880094,26.568 55.0599936,27.1379943 56.332,28.278 C57.6040064,29.4180057 58.24,31.1279886 58.24,33.408 L58.24,45 L52.948,45 L52.948,34.632 C52.948,33.7439956 52.7080024,33.0180028 52.228,32.454 C51.7479976,31.8899972 51.0400047,31.608 50.104,31.608 C49.1679953,31.608 48.4360026,31.907997 47.908,32.508 C47.3799974,33.108003 47.116,33.8279958 47.116,34.668 L47.116,45 L41.716,45 L41.716,34.632 C41.716,33.7439956 41.4700025,33.0180028 40.978,32.454 C40.4859975,31.8899972 39.7720047,31.608 38.836,31.608 C37.9239954,31.608 37.2040026,31.907997 36.676,32.508 C36.1479974,33.108003 35.884,33.8399957 35.884,34.704 L35.884,45 Z M68.4560001,40.5 C69.5840057,40.5 70.5379962,40.1160038 71.3180001,39.348 C72.098004,38.5799962 72.4880001,37.4760072 72.4880001,36.036 C72.4880001,34.5959928 72.098004,33.4980038 71.3180001,32.742 C70.5379962,31.9859962 69.5840057,31.608 68.4560001,31.608 C67.3519946,31.608 66.4040041,31.9919962 65.6120001,32.76 C64.8199961,33.5280038 64.4240001,34.6199929 64.4240001,36.036 C64.4240001,37.4520071 64.8199961,38.5499961 65.6120001,39.33 C66.4040041,40.1100039 67.3519946,40.5 68.4560001,40.5 Z M68.4560001,26.568 C71.1680137,26.568 73.429991,27.4559911 75.2420001,29.232 C77.0540092,31.0080089 77.9600001,33.2759862 77.9600001,36.036 C77.9600001,38.7960138 77.0540092,41.0699911 75.2420001,42.858 C73.429991,44.6460089 71.1680137,45.54 68.4560001,45.54 C65.7679867,45.54 63.5120092,44.640009 61.6880001,42.84 C59.863991,41.039991 58.9520001,38.7720137 58.9520001,36.036 C58.9520001,33.2999863 59.863991,31.0380089 61.6880001,29.25 C63.5120092,27.4619911 65.7679867,26.568 68.4560001,26.568 Z M90.4080002,45 C90.3119997,44.5679978 90.2640002,43.9680038 90.2640002,43.2 C89.831998,43.9200036 89.1720046,44.4659981 88.2840002,44.838 C87.3959958,45.2100019 86.4600051,45.396 85.4760002,45.396 C83.3639896,45.396 81.7020063,44.7300067 80.4900002,43.398 C79.2779941,42.0659933 78.6720002,40.40401 78.6720002,38.412 L78.6720002,27.108 L84.1440002,27.108 L84.1440002,37.26 C84.1440002,38.1720046 84.3899977,38.9159971 84.8820002,39.492 C85.3740027,40.0680029 86.0879955,40.356 87.0240002,40.356 C87.9360048,40.356 88.6619975,40.0740028 89.2020002,39.51 C89.7420029,38.9459972 90.0120002,38.2080046 90.0120002,37.296 L90.0120002,27.108 L95.4840002,27.108 L95.4840002,41.796 C95.4840002,42.9720059 95.5439996,44.0399952 95.6640002,45 L90.4080002,45 Z M103.18,51.84 L97.7080003,51.84 L97.7080003,27.108 L103,27.108 L103,28.944 C103.408002,28.3199969 104.085996,27.7860022 105.034,27.342 C105.982005,26.8979978 107.055994,26.676 108.256,26.676 C110.800013,26.676 112.821993,27.5459913 114.322,29.286 C115.822008,31.0260087 116.572,33.2639863 116.572,36 C116.572,38.7360137 115.774008,40.9859912 114.178,42.75 C112.581992,44.5140088 110.536013,45.396 108.04,45.396 C105.783989,45.396 104.164005,44.796006 103.18,43.596 L103.18,51.84 Z M110.02,39.348 C110.812004,38.555996 111.208,37.4520071 111.208,36.036 C111.208,34.6199929 110.818004,33.5280038 110.038,32.76 C109.257996,31.9919962 108.292006,31.608 107.14,31.608 C106.011995,31.608 105.058004,31.9919962 104.278,32.76 C103.497996,33.5280038 103.108,34.6199929 103.108,36.036 C103.108,37.4520071 103.497996,38.5499961 104.278,39.33 C105.058004,40.1100039 106.011995,40.5 107.14,40.5 C108.292006,40.5 109.251996,40.1160038 110.02,39.348 Z" id="moup"></path>
        </g>
    </g>
</svg>
