<?xml version="1.0" encoding="UTF-8"?>
<svg width="27px" height="28px" viewBox="0 0 27 28" version="1.1" xmlns="http://www.w3.org/2000/svg" xmlns:xlink="http://www.w3.org/1999/xlink">
    <!-- Generator: Sketch 50.2 (55047) - http://www.bohemiancoding.com/sketch -->
    <title>CONVRT ME</title>
    <desc>Created with Sketch.</desc>
    <defs></defs>
    <g id="Page-1" stroke="none" stroke-width="1" fill="none" fill-rule="evenodd">
        <path d="M13.9431664,28 C10.0026867,28 6.69374365,26.7054708 4.01623816,24.1163735 C1.33873267,21.5272762 0,18.1741297 0,14.0568336 C0,9.96479686 1.35136222,6.59902087 4.0541272,3.9594046 C6.75689218,1.31978834 10.0279465,0 13.8673884,0 C15.7871093,0 17.5236729,0.284164953 19.0771313,0.852503383 C20.6305896,1.42084181 21.8872302,2.17230024 22.8470907,3.10690122 C23.8069511,4.04150219 24.5773539,5.00134825 25.1583221,5.9864682 C25.7392902,6.97158815 26.1434359,7.99458198 26.3707713,9.05548038 L20.7253045,10.8362652 C20.599007,10.305816 20.3969342,9.78168955 20.1190798,9.26387009 C19.8412255,8.74605064 19.4497093,8.21560939 18.9445196,7.67253045 C18.4393299,7.1294515 17.7447045,6.68741713 16.8606225,6.34641407 C15.9765405,6.00541101 14.9788057,5.83491204 13.8673884,5.83491204 C11.8466295,5.83491204 10.0658625,6.54848181 8.52503383,7.97564276 C6.9842052,9.40280371 6.21380244,11.429847 6.21380244,14.0568336 C6.21380244,16.4817442 6.97157564,18.4140659 8.48714479,19.8538566 C10.0027139,21.2936473 11.8213696,22.0135318 13.9431664,22.0135318 C16.0144443,22.0135318 17.6183976,21.4957201 18.7550744,20.4600812 C19.8917513,19.4244423 20.6368949,18.2625234 20.9905277,16.9742896 L26.7117727,18.6035183 C26.4591778,19.6391572 26.0487173,20.662151 25.4803789,21.6725304 C24.9120405,22.6829099 24.1416377,23.6806446 23.1691475,24.6657645 C22.1966573,25.6508845 20.9084428,26.4528611 19.3044655,27.0717185 C17.7004881,27.6905759 15.9134063,28 13.9431664,28 Z" id="CONVRT-ME" fill="#13C4A3"></path>
    </g>
</svg>