<?xml version="1.0" encoding="UTF-8"?>
<svg width="20px" height="20px" viewBox="0 0 20 20" version="1.1" xmlns="http://www.w3.org/2000/svg" xmlns:xlink="http://www.w3.org/1999/xlink">
    <!-- Generator: Sketch 50.2 (55047) - http://www.bohemiancoding.com/sketch -->
    <title>Shape</title>
    <desc>Created with Sketch.</desc>
    <defs></defs>
    <g id="Page-1" stroke="none" stroke-width="1" fill="none" fill-rule="evenodd">
        <g id="Artboard" transform="translate(-825.000000, -216.000000)" fill="#13C4A3">
            <path d="M833,230.5 L839,226 L833,221.5 L833,230.5 L833,230.5 Z M835,216 C829.5,216 825,220.5 825,226 C825,231.5 829.5,236 835,236 C840.5,236 845,231.5 845,226 C845,220.5 840.5,216 835,216 L835,216 Z M827,226 C827,221.6 830.6,218 835,218 C839.4,218 843,221.6 843,226 C843,230.4 839.4,234 835,234 C830.6,234 827,230.4 827,226 Z" id="Shape"></path>
        </g>
    </g>
</svg>