<?xml version="1.0" encoding="UTF-8"?>
<svg width="25px" height="31px" viewBox="0 0 25 31" version="1.1" xmlns="http://www.w3.org/2000/svg" xmlns:xlink="http://www.w3.org/1999/xlink">
    <g id="Page-1" stroke="none" stroke-width="1" fill="none" fill-rule="evenodd">
        <g id="Artboard" transform="translate(-1812.000000, -17.000000)">
            <g id="ic-notification" transform="translate(1806.000000, 14.000000)">
                <g id="Bounding_Boxes">
                    <polygon id="Shape" points="0 0 37 0 37 37 0 37"></polygon>
                </g>
                <g id="Outline" transform="translate(6.000000, 3.000000)" fill="#39A0ED" fill-rule="nonzero">
                    <path d="M12.5,31 C14.21875,31 15.625,29.605 15.625,27.9 L9.375,27.9 C9.375,29.605 10.78125,31 12.5,31 Z M21.875,21.7 L21.875,13.95 C21.875,9.1915 19.328125,5.208 14.84375,4.154 L14.84375,3.1 C14.84375,1.8135 13.796875,0.775 12.5,0.775 C11.203125,0.775 10.15625,1.8135 10.15625,3.1 L10.15625,4.154 C5.6875,5.208 3.125,9.176 3.125,13.95 L3.125,21.7 L0,24.8 L0,26.35 L25,26.35 L25,24.8 L21.875,21.7 Z M18.75,23.25 L6.25,23.25 L6.25,13.95 C6.25,10.106 8.609375,6.975 12.5,6.975 C16.390625,6.975 18.75,10.106 18.75,13.95 L18.75,23.25 Z" id="Shape"></path>
                </g>
            </g>
        </g>
    </g>
</svg>
