<?xml version="1.0" encoding="UTF-8"?>
<svg width="10px" height="23px" viewBox="0 0 10 23" version="1.1" xmlns="http://www.w3.org/2000/svg" xmlns:xlink="http://www.w3.org/1999/xlink">
    <!-- Generator: Sketch 51 (57462) - http://www.bohemiancoding.com/sketch -->
    <title>apps</title>
    <desc>Created with Sketch.</desc>
    <defs></defs>
    <g id="Page-1" stroke="none" stroke-width="1" fill="none" fill-rule="evenodd" opacity="0.0946428571">
        <g id="Artboard" transform="translate(-1142.000000, -318.000000)" fill="#4C6085">
            <g id="apps" transform="translate(1142.000000, 318.000000)">
                <path d="M0,4.5 L3.75,4.5 L3.75,0.75 L0,0.75 L0,4.5 L0,4.5 Z M6,4.5 L9.75,4.5 L9.75,0.75 L6,0.75 L6,4.5 L6,4.5 Z M0,10.5 L3.75,10.5 L3.75,6.75 L0,6.75 L0,10.5 L0,10.5 Z M6,10.5 L9.75,10.5 L9.75,6.75 L6,6.75 L6,10.5 L6,10.5 Z M0,16.5 L3.75,16.5 L3.75,12.75 L0,12.75 L0,16.5 L0,16.5 Z M6,16.5 L9.75,16.5 L9.75,12.75 L6,12.75 L6,16.5 L6,16.5 Z M0,22.5 L3.75,22.5 L3.75,18.75 L0,18.75 L0,22.5 L0,22.5 Z M6,22.5 L9.75,22.5 L9.75,18.75 L6,18.75 L6,22.5 L6,22.5 Z" id="Shape"></path>
            </g>
        </g>
    </g>
</svg>