
<svg width="26px" height="32px" viewBox="0 0 26 32" version="1.1" xmlns="http://www.w3.org/2000/svg" xmlns:xlink="http://www.w3.org/1999/xlink">
  <g id="Page-1" stroke="none" stroke-width="1" fill="none" fill-rule="evenodd">
    <g id="loop" fill="#B8C0CF">
      <path d="M13,4.36363636 L13,0 L6.5,5.81818182 L13,11.6363636 L13,7.27272727 C18.3625,7.27272727 22.75,11.2 22.75,16 C22.75,17.4545455 22.2625,18.9090909 21.6125,20.0727273 L24.05,22.2545455 C25.1875,20.3636364 26,18.3272727 26,16 C26,9.6 20.15,4.36363636 13,4.36363636 L13,4.36363636 Z M3.25,16 C3.25,14.5454545 3.7375,13.0909091 4.3875,11.9272727 L1.95,9.74545455 C0.8125,11.6363636 0,13.6727273 0,16 C0,22.4 5.85,27.6363636 13,27.6363636 L13,32 L19.5,26.1818182 L13,20.3636364 L13,24.7272727 C7.6375,24.7272727 3.25,20.8 3.25,16 Z" id="Shape"></path>
    </g>
  </g>
</svg>
