<?xml version="1.0" encoding="UTF-8"?>
<svg width="27px" height="27px" viewBox="0 0 27 27" version="1.1" xmlns="http://www.w3.org/2000/svg" xmlns:xlink="http://www.w3.org/1999/xlink">
    <g id="Page-1" stroke="none" stroke-width="1" fill="none" fill-rule="evenodd">
        <g id="Artboard" transform="translate(-1866.000000, -18.000000)" fill="#39A0ED" fill-rule="nonzero">
            <path d="M1879.5,21.7241379 C1881.29224,21.7241379 1882.75862,23.1905172 1882.75862,24.9827586 C1882.75862,26.775 1881.29224,28.2413793 1879.5,28.2413793 C1877.70776,28.2413793 1876.24138,26.775 1876.24138,24.9827586 C1876.24138,23.1905172 1877.70776,21.7241379 1879.5,21.7241379 Z M1879.96552,36.6206897 C1884.57414,36.6206897 1889.86552,38.6224138 1890.2069,39.7241379 L1890.2069,41.2758621 L1869.72414,41.2758621 L1869.72414,39.7396552 C1870.06552,38.6224138 1875.3569,36.6206897 1879.96552,36.6206897 Z M1879.5,18 C1875.64203,18 1872.51724,21.1247845 1872.51724,24.9827586 C1872.51724,28.8407328 1875.64203,31.9655172 1879.5,31.9655172 C1883.35797,31.9655172 1886.48276,28.8407328 1886.48276,24.9827586 C1886.48276,21.1247845 1883.35797,18 1879.5,18 Z M1879.5,32.8965517 C1874.99437,32.8965517 1866,35.2134975 1866,39.8128079 L1866,45 L1893,45 L1893,39.8128079 C1893,35.2134975 1884.00563,32.8965517 1879.5,32.8965517 Z" id="Shape"></path>
        </g>
    </g>
</svg>
