<?xml version="1.0" encoding="UTF-8"?>
<svg width="44px" height="43px" viewBox="0 0 44 43" version="1.1" xmlns="http://www.w3.org/2000/svg" xmlns:xlink="http://www.w3.org/1999/xlink">
    <!-- Generator: Sketch 50.2 (55047) - http://www.bohemiancoding.com/sketch -->
    <title>Group</title>
    <desc>Created with Sketch.</desc>
    <defs>
        <path d="M12,0 L32,0 C38.627417,-1.21743675e-15 44,5.372583 44,12 L44,31 C44,37.627417 38.627417,43 32,43 L12,43 C5.372583,43 8.11624501e-16,37.627417 0,31 L0,12 C-8.11624501e-16,5.372583 5.372583,1.21743675e-15 12,0 Z" id="path-1"></path>
        <mask id="mask-2" maskContentUnits="userSpaceOnUse" maskUnits="objectBoundingBox" x="0" y="0" width="44" height="43" fill="white">
            <use xlink:href="#path-1"></use>
        </mask>
    </defs>
    <g id="Page-1" stroke="none" stroke-width="1" fill="none" fill-rule="evenodd">
        <g id="Artboard" transform="translate(-729.000000, -202.000000)">
            <g id="Group" transform="translate(729.000000, 202.000000)">
                <use id="Rectangle-13" stroke="#dee6f3" mask="url(#mask-2)" stroke-width="6" stroke-dasharray="7,4" xlink:href="#path-1"></use>
                <g id="add" transform="translate(15.000000, 14.000000)" fill="#dee6f3">
                    <polygon id="Shape" points="14 8 8 8 8 14 6 14 6 8 0 8 0 6 6 6 6 0 8 0 8 6 14 6"></polygon>
                </g>
            </g>
        </g>
    </g>
</svg>
